/* XPM */
static char const* const arrow_dl_xpm[] = {
"24 24 2 1",
" 	c None",
".	c #000000",
"                        ",
"                    .   ",
"                   ..   ",
"                   ...  ",
"                  ....  ",
"                  ....  ",
"                 .....  ",
"                 ...... ",
"                ....... ",
"                ....... ",
"               ... .... ",
"                  .. ...",
"                 ...  ..",
"                 ..     ",
"                ...     ",
"        .     ....      ",
"      ....   ....       ",
"    .....  ....         ",
"  ............          ",
"............            ",
".........               ",
"  .......               ",
"        ...             ",
"                        "};
