/* XPM */
static char *gnome-clock[] = {
/* columns rows colors chars-per-pixel */
"48 48 239 2",
"   c #000000",
".  c #0C0C0C",
"X  c #111111",
"o  c #1C1C1C",
"O  c gray14",
"+  c #2B2B2B",
"@  c #333333",
"#  c #3B3B3B",
"$  c #7F702D",
"%  c #434343",
"&  c #4B4B4B",
"*  c #525252",
"=  c gray36",
"-  c #7E7446",
";  c #7E764E",
":  c #77735F",
">  c #7A7457",
",  c #78745F",
"<  c #626262",
"1  c gray42",
"2  c #76746C",
"3  c #78766B",
"4  c #7E7A64",
"5  c #7B796F",
"6  c #737373",
"7  c #7B7A74",
"8  c #7C7C7C",
"9  c #84742D",
"0  c #8B7B2F",
"q  c #877A31",
"w  c #8B7B32",
"e  c #807747",
"r  c #857B42",
"t  c #817A54",
"y  c #817F74",
"u  c #9D852A",
"i  c #938334",
"p  c #938538",
"a  c #978836",
"s  c #96893B",
"d  c #9C8631",
"f  c #998638",
"g  c #9A8A37",
"h  c #9B8C3A",
"j  c #9E913D",
"k  c #A58C2B",
"l  c #AA8E2B",
"z  c #A08E3A",
"x  c #A88F32",
"c  c #AC912C",
"v  c #A3933C",
"b  c #A6983E",
"n  c #AB9334",
"m  c #AA953A",
"M  c #AA983D",
"N  c #B2952E",
"B  c #B79A2F",
"V  c #BA9C2F",
"C  c #B29631",
"Z  c #B09738",
"A  c #B79934",
"S  c #B29B3A",
"D  c #BA9D32",
"F  c #B89E39",
"G  c #BEA02F",
"H  c #B7A43E",
"J  c #BFA337",
"K  c #BCA23A",
"L  c #9B8F40",
"P  c #9D9243",
"I  c #87856B",
"U  c #89866D",
"Y  c #878676",
"T  c #878779",
"R  c #8B8A7B",
"E  c #949063",
"W  c #9C9469",
"Q  c #9E9963",
"!  c #9F996F",
"~  c #969172",
"^  c #999476",
"/  c #9C9678",
"(  c #A69540",
")  c #A49845",
"_  c #AB9B41",
"`  c #A99F4A",
"'  c #B09D42",
"]  c #A09C66",
"[  c #A49B6E",
"{  c #AFA043",
"}  c #A6A05F",
"|  c #A8A25B",
" . c #B2A041",
".. c #B4A54A",
"X. c #B4A94B",
"o. c #BAA442",
"O. c #B8A748",
"+. c #B9A847",
"@. c #BCAB4D",
"#. c #B5A259",
"$. c #B8A55B",
"%. c #BCAD52",
"&. c #BDB54D",
"*. c #BEB456",
"=. c #BEBB58",
"-. c #A9A261",
";. c #B9A763",
":. c #BCA864",
">. c #C1A333",
",. c #C1A539",
"<. c #C3A93C",
"1. c #C8A635",
"2. c #CBAC32",
"3. c #CEB03F",
"4. c #D3B235",
"5. c #D0B13C",
"6. c #DDBA3A",
"7. c #C4AD40",
"8. c #C0AD4C",
"9. c #C9AF45",
"0. c #C0AF56",
"q. c #C4B044",
"w. c #C4B44C",
"e. c #C7B94F",
"r. c #C9B343",
"t. c #C9B54B",
"y. c #CCBA4B",
"u. c #C2B253",
"i. c #C1B35C",
"p. c #C2BB54",
"a. c #C4BA5D",
"s. c #C9B651",
"d. c #CBBB51",
"f. c #CBBA5B",
"g. c #D4B644",
"h. c #D1BE4D",
"j. c #D9B942",
"k. c #D1BF53",
"l. c #D0BE5D",
"z. c #C1AF6F",
"x. c #C3B560",
"c. c #C1B06D",
"v. c #C6B961",
"b. c #C9BB62",
"n. c #E7C53E",
"m. c #CCC153",
"M. c #CEC35A",
"N. c #CCCA5D",
"B. c #D3C14F",
"V. c #DFC44F",
"C. c #D3C353",
"Z. c #D3C45B",
"A. c #D7C95A",
"S. c #D8C759",
"D. c #D9C955",
"F. c #DACC5B",
"G. c #DCD15D",
"H. c #DCDB5D",
"J. c #C3C060",
"K. c #CDC264",
"L. c #CDCB66",
"P. c #CDCB68",
"I. c #D0C864",
"U. c #D4CF6D",
"Y. c #D8C561",
"T. c #DBCC64",
"R. c #D5D465",
"E. c #DDD361",
"W. c #D4D370",
"Q. c #DBDB74",
"!. c #DDDC79",
"~. c #E0C149",
"^. c #E6C84E",
"/. c #EDCA42",
"(. c #E0D25C",
"). c #F6D245",
"_. c #F5D749",
"`. c #FBDE4C",
"'. c #E0D563",
"]. c #E1D369",
"[. c #E5D962",
"{. c #E6D96B",
"}. c #E9DD65",
"|. c #E8DB6E",
" X c #E9DD70",
".X c #E4E25C",
"XX c #EFED5A",
"oX c #F4E04F",
"OX c #F3E755",
"+X c #FBE754",
"@X c #FBF45C",
"#X c #E4E46B",
"$X c #EBE067",
"%X c #EBE36D",
"&X c #EBEB67",
"*X c #E3E374",
"=X c #EDE172",
"-X c #ECEC78",
";X c #F0E66D",
":X c #F0E670",
">X c #F3EA70",
",X c #F4F36A",
"<X c #FAFA62",
"1X c #F4F472",
"2X c #F0F07A",
"3X c #FCFC7F",
"4X c #838383",
"5X c #8B8B8B",
"6X c #9A9787",
"7X c #939393",
"8X c #989796",
"9X c #9B9B9B",
"0X c #A09B8D",
"qX c #A7A18D",
"wX c #AAA58F",
"eX c #B9AF86",
"rX c #B9AF89",
"tX c #B5AF9E",
"yX c #B7B29D",
"uX c #A2A2A2",
"iX c #AAAAAA",
"pX c #B4B3AD",
"aX c #BFB9A6",
"sX c #B2B2B1",
"dX c #C2BDA9",
"fX c #D6CA9D",
"gX c #C7C3AD",
"hX c #CDC6AD",
"jX c #CBC6B0",
"kX c #E0D6A6",
"lX c #E1D8A5",
"zX c #E7E78B",
"xX c #EBEB8D",
"cX c #ECE39D",
"vX c #F5E08F",
"bX c #F1EF92",
"nX c #F8E491",
"mX c #F8F493",
"MX c None",
/* pixels */
"MXMXMXMXMXMXMXMXMXMXMXMXMXMXMXMXMXMXMXMXMXMXMXMXMXMXMXMXMXMXMXMXMXMXMXMXMXMXMXMXMXMXMXMXMXMXMXMX",
"MXMXMXMXMXMXMXMXMXMXMXMXMXMXMXMXMXMXMXMXMXMXMXMXMXMXMXMXMXMXMXMXMXMXMXMXMXMXMXMXMXMXMXMXMXMXMXMX",
"MXMXMXMXMXMXMXMXMXMXMXMXMXMXMXMXMXMXMXMXMXMXMXMXMXMXMXMXMXMXMXMXMXMXMXMXMXMXMXMXMXMXMXMXMXMXMXMX",
"MXMXMXMXMXMXMXMXMXMXMXMXMXMXMXMXMXMXMXMXMXMXMXMXMXMXMXMXMXMXMXMXMXMXMXMXMXMXMXMXMXMXMXMXMXMXMXMX",
"MXMXMXMXMXMXMXMXMXMXMXMXMXMXMXMXMXMXU.b.K.l.l.l.Y.T.E.]. X X XMXMXMXMXMXMXMXMXMXMXMXMXMXMXMXMXMX",
"MXMXMXMXMXMXMXMXMXMXMXMXMXMXMXMXb.b.v.b.f.l.l.l.Y.T.].|.|. X X:X;XMXMXMXMXMXMXMXMXMXMXMXMXMXMXMX",
"MXMXMXMXMXMXMXMXMXMXMXMXMXMXv.v.b.i.0.8.8.%.8.u.f.f.A.T.].{. X:X;X>X;XMXMXMXMXMXMXMXMXMXMXMXMXMX",
"MXMXMXMXMXMXMXMXMXMXMXMXa.i.x.i.%.O.M z f p s L P ) ` X.*.Z.'.|.;X%X$X$X[.MXMXMXMXMXMXMXMXMXMXMX",
"MXMXMXMXMXMXMXMXMXMXMX*.*.x.%.@.( w 9 e t 4 7 7 8 8 Y I E | *.N.[.}.}.[.(.G.MXMXMXMXMXMXMXMXMXMX",
"MXMXMXMXMXMXMXMXMXMXx.x.i.%.) w q e 3 4X5X9X9XuXuXuX9X9X7X5XR Q p.M.G.F.G.D.D.MXMXMXMXMXMXMXMXMX",
"MXMXMXMXMXMXMXMXMXv.*.*.O.h q e 2 5X9XuXiXuXuX< = 9XuXuX9X9X9X5X5X| d.C.D.D.B.B.MXMXMXMXMXMXMXMX",
"MXMXMXMXMXMXMXMXx.x.i.` a q , y 7X6 8XiXuXuXuX< < uX9X9X9X9X5X1 8X5X! e.C.B.y.t.r.MXMXMXMXMXMXMX",
"MXMXMXMXMXMXMXb.x.i...w 9 , 4X9XuX< * uXuXuXuX= < 9X9X9X9X9X& = 8X7X7X^ w.y.y.r.<.J MXMXMXMXMXMX",
"MXMXMXMXMXMXMXi.0...a 9 : 5XuXiXiX9X* 5XuXuX9XuX9X9X9X9X9X4X& 5X7X7X7X5X/ q.<.<.K A MXMXMXMXMXMX",
"MXMXMXMXMXMXi.i.@.z 9 > 4XuXiXiXuXuX6 1 9XuXuX9X9X9X9X9X9X< 1 7X7X7X7X7X5X[ K ,.D C c MXMXMXMXMX",
"MXMXMXMXMXMXi.0.' 0 - 8 9XiXuXuXuXuXuXuXuXuX9X9X9X9X9X8X8X7X7X7X7X7X5X7X5X5X$.,.D N c MXMXMXMXMX",
"MXMXMXMXMXv.i.%.h q 6 7XiXuXuXuXuXuX9XuX9X9X9X9X9X9X9X7X7X7X7X7X7X5X7X5X5X5X8X1.V N l k MXMXMXMX",
"MXMXMXMXMXf.i...i > 4X7X* 6 uXuXuXuX9X9X9X9X9X9X9X7X8X7X7X7X7X7X7X5X5X< % 8 7X:.>.B l l MXMXMXMX",
"MXMXMXMXI.f.i.M q 2 8X9X8 = # 5XuXuXuX9X9X9X9X8X7X9X7X7X7X7X7X5X7X8 @ & 1 4X5XwX4.V l k k MXMXMX",
"MXMXMXMXi.f.w.v r 8 uXuXuXuX4X7X9X9X9X9X9X9X8X8X7X7X7X7X5X7X7X5X5X4X1 5X5X5X4X9X9.>.c k c MXMXMX",
"MXMXMXMXs.s.@.s t 5XuXuXuXuX9XuX9X9X9X9X8X8X8X7X7X7X7X7X7X5X5X5X5X5X5X5X5X5X4X8Xc.2.V c n MXMXMX",
"MXMXMXMXt.d.@.s 4 8XuXuXuX9X9X9X9X9X8X9X8X8X8X7X7X7X5X6 * @ + O = 5X5X4X4X4X4X5XeX6.,.Z n MXMXMX",
"MXMXMXMXd.d.&.s 5 9XuX9X9XuX9X9X9X9X9X8X8X7X5X8 * @ O o o o o o # 4X5X4X4X4X4X4XyX/.5.A n MXMXMX",
"MXMXMXMXd.d.s.P 7 9X4X4X4X5X9X9X9X8X8X7X8X7X% . X o o o o o o O * 5X4X7 1 1 1 4XpX_.6.F m MXMXMX",
"MXMXMXMXk.C.s.P 8 9X* * & 1 9X8X8X8X7X7X7X7Xo   . o o o + # < 8 5X4X4X= % % % 8 sXOXj.A n MXMXMX",
"MXMXMXMXC.S.f.) 7 9X9X9X9X9X9X8X8X8X7X7X7X7X% X X # < 8 5X5X5X4X4X4X4X4X4X8 4X4XpXOXg.m z MXMXMX",
"MXMXMXMXZ.F.Z.{ 7 9X9X9X9X9X8X8X7X7X7X7X5X7X7X5X# 8 5X5X5X5X4X4X4X4X4X4X8 8 8 5XdXOX9.z h MXMXMX",
"MXMXMXMXA.F.T.X.I 7X9X9X8X8X7X7X7X7X7X5X7X5X5X5X= = 5X4X4X4X4X4X4X4X8 4X4X8 8 8XfX.Xo.f f MXMXMX",
"MXMXMXMXC.F.F.*.E 5X8X8X8X7X7X7X7X7X7X5X5X5X5X5X8 + 4X5X4X4X4X4X4X8 4X8 8 8 8 iXvXH._ p s MXMXMX",
"MXMXMXMXe.S.F.Z.| 4X8X8X7X7X8 4X7X5X7X5X5X5X5X5X5X& < 4X4X4X4X4X4X6 < 8 8 7 4XsX2XN.( p s MXMXMX",
"MXMXMXMXS A.F.G.*.Y 7X5X6 * @ 8 7X5X5X5X5X5X5X5X4X1 % 4X4X4X4X8 4X1 + % = 6 7XhX#X=.( h a MXMXMX",
"MXMXMXMXMXC.F.E.N.~ 5X4X& 1 7X7X5X7X5X5X5X5X4X5X4X8 + 1 4X4X8 4X8 8 4X* # 6 sXbXR.X.h v MXMXMXMX",
"MXMXMXMXMXy.A.(.E.p.T 5X7X7X5X5X5X5X5X5X4X5X4X4X5X4X& & 4X8 8 8 8 8 8 6 8 7XjX*XJ.) j v MXMXMXMX",
"MXMXMXMXMXMXA.A.G.d.| 5X5X7X7X5X5X5X5X5X5X4X5X4X4X4X4Xo 6 4X8 8 8 7 8 6 5XsXzXP.X.j j MXMXMXMXMX",
"MXMXMXMXMXMXt.C.A.A.d.W 5X5X5X5X5X4X= = 4X4X4X4X4X4X8 * & * = 8 8 6 6 4XiXcXU.=.{ j v MXMXMXMXMX",
"MXMXMXMXMXMXMXe.m.D.m.e.~ 5X5X5X5X4X% 6 4X4X4X4X4X8 4X1 % < # 6 8 6 4XiXkXW.M.O.j j MXMXMXMXMXMX",
"MXMXMXMXMXMXMXH m.B.B.y.&.^ 5X4X5X& % 4X4X4X4X& & 8 8 8 8 8 # % 6 5XiXkX!.K.&.b j i MXMXMXMXMXMX",
"MXMXMXMXMXMXMXMXy.B.B.B.r.K W 5X5X= 7 4X4X4X4X& & 8 8 8 8 6 1 = 7XsXcX!.P.&.M v h MXMXMXMXMXMXMX",
"MXMXMXMXMXMXMXMXMXB.B.y.y.K K #.6X5X4X4X8 4X8 & & 7 8 6 6 4X7XiXdXxX!.L.&.{ b v MXMXMXMXMXMXMXMX",
"MXMXMXMXMXMXMXMXMXMXy.t.3.<.,.>.1.;.0X9X7X4X4X4X8 4X5X7XuXsXgXmX-XQ.N.&._ M v MXMXMXMXMXMXMXMXMX",
"MXMXMXMXMXMXMXMXMXMXMX<.K J J D D 1.4.t.z.rXtXiXiXpXaXfXnXmX1X#XR.m.O._ M v MXMXMXMXMXMXMXMXMXMX",
"MXMXMXMXMXMXMXMXMXMXMXMX,.J A B N D G >.4.n.).`.+X@X<X<X<X&X.XC.&.{ M m i MXMXMXMXMXMXMXMXMXMXMX",
"MXMXMXMXMXMXMXMXMXMXMXMXMXMXN N l k k l D 1.r.j.V.^.^.V.h.t.+.{ _ b h MXMXMXMXMXMXMXMXMXMXMXMXMX",
"MXMXMXMXMXMXMXMXMXMXMXMXMXMXMXMXu u u k x n A F F o.H ' M M _ M v MXMXMXMXMXMXMXMXMXMXMXMXMXMXMX",
"MXMXMXMXMXMXMXMXMXMXMXMXMXMXMXMXMXMX$ d n Z S S M M M m b v w MXMXMXMXMXMXMXMXMXMXMXMXMXMXMXMXMX",
"MXMXMXMXMXMXMXMXMXMXMXMXMXMXMXMXMXMXMXMXMXMXMXMXMXMXMXMXMXMXMXMXMXMXMXMXMXMXMXMXMXMXMXMXMXMXMXMX",
"MXMXMXMXMXMXMXMXMXMXMXMXMXMXMXMXMXMXMXMXMXMXMXMXMXMXMXMXMXMXMXMXMXMXMXMXMXMXMXMXMXMXMXMXMXMXMXMX",
"MXMXMXMXMXMXMXMXMXMXMXMXMXMXMXMXMXMXMXMXMXMXMXMXMXMXMXMXMXMXMXMXMXMXMXMXMXMXMXMXMXMXMXMXMXMXMXMX"
};
