/* XPM */
static char *gnome-laptop[] = {
/* columns rows colors chars-per-pixel */
"50 48 125 2",
"   c #000000",
".  c #0B0B0B",
"X  c #141414",
"o  c #1B1B1B",
"O  c #2A2A1D",
"+  c #322E1F",
"@  c gray14",
"#  c #2C2C22",
"$  c #2B2B2B",
"%  c #2B332B",
"&  c #332F22",
"*  c #323124",
"=  c #31342C",
"-  c #39372B",
";  c #323232",
":  c #323B31",
">  c #3A3930",
",  c #3D3C3C",
"<  c #453B27",
"1  c #403A29",
"2  c #403B30",
"3  c #40433F",
"4  c #524022",
"5  c #54442B",
"6  c #424242",
"7  c #454A42",
"8  c #4A4D43",
"9  c #4A4A4A",
"0  c #4C514C",
"q  c #575447",
"w  c #58564E",
"e  c #535452",
"r  c #535953",
"t  c #575D58",
"y  c #585D57",
"u  c #5B5C5A",
"i  c #5E635E",
"p  c #635C4E",
"a  c #635D50",
"s  c #605F5F",
"d  c #61625E",
"f  c #63685E",
"g  c #686356",
"h  c #68635A",
"j  c #6A685D",
"k  c #646563",
"l  c #656A66",
"z  c #696A65",
"x  c #6C6B6B",
"c  c #686A7A",
"v  c #706F6F",
"b  c #73726C",
"n  c #7B786C",
"m  c #737372",
"M  c #747874",
"N  c #7B7B7B",
"B  c #797C84",
"V  c #817C71",
"C  c #817E7B",
"Z  c #81847F",
"A  c #838383",
"S  c #858E84",
"D  c #858988",
"F  c #888787",
"G  c #898986",
"H  c #8B8B8A",
"J  c #8A8D92",
"K  c #88889A",
"L  c #8F9390",
"P  c #918C86",
"I  c #928F8B",
"U  c #9A8F86",
"Y  c #94908C",
"T  c #97998D",
"R  c #939393",
"E  c #969895",
"W  c #979A98",
"Q  c #9B9B9B",
"!  c #9E9EB8",
"~  c #9FA09F",
"^  c #A29F9C",
"/  c #A8A89F",
"(  c #A3A3A3",
")  c #ABABAB",
"_  c #A2A3B7",
"`  c #A3A2BD",
"'  c #ADADB8",
"]  c #AEB0AE",
"[  c #AFB0BA",
"{  c #B0B0AF",
"}  c #B8B4AE",
"|  c #B2B2B2",
" . c #B2B2BA",
".. c #B7B8B6",
"X. c #BBBBBB",
"o. c #9D9AC5",
"O. c #A19EC7",
"+. c #AEAEC0",
"@. c #B3B3C4",
"#. c #BBBCC2",
"$. c #BCBCCA",
"%. c #B3B0D7",
"&. c #BFC0C9",
"*. c #C4C4B4",
"=. c #C3C3C3",
"-. c #C3C4CA",
";. c #C7C8C7",
":. c #C7C8CB",
">. c #CACBCA",
",. c #C2C2D1",
"<. c #C3C2DA",
"1. c #CECED0",
"2. c #CFCFDB",
"3. c #CFD0CF",
"4. c #D3D3D3",
"5. c #D8D9D5",
"6. c #DCDCDB",
"7. c #D1D0E2",
"8. c #D8D8E3",
"9. c #DFE0DC",
"0. c #E0E0DD",
"q. c #E3E3E3",
"w. c #EBEBEB",
"e. c #F0F0F2",
"r. c None",
/* pixels */
"r.r.r.r.r.r.r.r.r.r.r.r.r.r.r.r.r.r.r.r.r.r.r.r.r.r.r.r.r.r.r.r.r.r.r.r.r.r.r.r.r.r.r.r.r.r.r.r.r.r.",
"r.r.r.r.r.r.r.r.r.r.r.r.r.r.r.r.r.r.r.r.r.r.r.r.r.r.r.r.r.r.r.r.r.r.r.r.r.r.r.r.r.r.r.r.r.r.r.r.r.r.",
"r.r.r.r.r.r.r.r.r.r.r.r.r.r.r.r.r.r.r.r.r.r.r.r.r.r.r.r.r.r.r.r.r.r.r.r.r.r.r.r.r.r.r.r.r.r.r.r.r.r.",
"r.r.r.r.r.r.r.r.r.r.r.r.r.r.r.r.r.r.r.r.r.r.r.r.r.r.r.r.r.r.r.r.r.r.r.r.r.r.r.r.r.r.r.r.r.r.r.r.r.r.",
"r.r.r.r.r.r.r.r.r.r.r.r.r.r.r.r.r.r.r.r.r.r.r.r.r.r.r.r.r.r.r.r.r.r.r.r.r.r.r.r.r.r.r.r.r.r.r.r.r.r.",
"r.r.r.r.r.r.r.r.r.r.r.r.r.r.r.r.r.r.r.r.r.r.r.r.r.r.r.r.r.r.r.r.r.r.r.r.r.r.r.r.r.r.r.r.r.r.r.r.r.r.",
"r.r.r.r.r.r.r.r.r.r.r.r.. ; = ; ; ; ; ; ;   r.r.r.r.r.r.r.r.r.r.r.r.r.r.r.r.r.r.r.r.r.r.r.r.r.r.r.r.",
"r.r.X u N N N N N N N N M I / Q Q Q ^ R | X r.r.r.r.r.r.r.r.r.r.r.r.r.r.r.r.r.r.r.r.r.r.r.r.r.r.r.r.",
"r.  m Q g y y p p e p h 3 = I ( ( | X.b ) x r.r.r.r.r.r.r.r.r.r.r.r.r.r.r.r.r.r.r.r.r.r.r.r.r.r.r.r.",
"r.r., Q f 7 0 e r u 5 < > = Z ;.=.$.e.1.j N r.r.r.r.r.r.r.r.r.r.r.r.r.r.r.r.r.r.r.r.r.r.r.r.r.r.r.r.",
"r.r.o I M l X.X.=.;.I 5 < - y >.;.,.1.q.v W r.r.r.r.r.r.r.r.r.r.r.r.r.r.r.r.r.r.r.r.r.r.r.r.r.r.r.r.",
"r.r.  k Q r =.>.;.| X.1 O * = $.$.;.0.6.b ..; r.r.r.r.r.r.r.r.r.r.r.r.r.r.r.r.r.r.r.r.r.r.r.r.r.r.r.",
"r.r.  0 W r ..>.=.| ) d r j m X.$.;.1.1.G ^ , r.r.r.r.r.r.r.r.r.r.r.r.r.r.r.r.r.r.r.r.r.r.r.r.r.r.r.",
"r.r.r.. H N H @.&.:.:.{ ) #.:.:.;.;.=.{ T N | r.r.r.r.r.r.r.r.r.r.r.r.r.r.r.r.r.r.r.r.r.r.r.r.r.r.r.",
"r.r.r.. N R D >.e.6.w.:. .0.w.6.4.q.0.R $.m A r.r.r.r.r.r.r.r.r.r.r.r.r.r.r.r.r.r.r.r.r.r.r.r.r.r.r.",
"r.r.r.  , H f ! %.o.8.O.` >.6.q.6.4.6.=.) Q { 0 r.r.r.r.r.r.r.r.r.r.r.r.r.r.r.r.r.r.r.r.r.r.r.r.r.r.",
"r.r.r.r.. A m J <.7.X.2.' :.*.) 0.w.8.;.E P Y , r.r.r.r.r.r.r.r.r.r.r.r.r.r.r.r.r.r.r.r.r.r.r.r.r.r.",
"r.r.r.r.  x N k 0.e.#.#.-.$.>.R ) q.q.4.| } ^ 9 r.r.r.r.r.r.r.r.r.r.r.r.r.r.r.r.r.r.r.r.r.r.r.r.r.r.",
"r.r.r.r.  , H y ..+.%.@.' ' 0.( H :.w.5./ *.C ) r.r.r.r.r.r.r.r.r.r.r.r.r.r.r.r.r.r.r.r.r.r.r.r.r.r.",
"r.r.r.r.r.@ C z E #.*.:.:.+.>.X.G Y ) 0.X.X.U J r.r.r.r.r.r.r.r.r.r.r.r.r.r.r.r.r.r.r.r.r.r.r.r.r.r.",
"r.r.r.r.r.  k N i ( E A g e $.6.>.) *.8.;.H Z R u r.r.r.r.r.r.r.r.r.r.r.r.r.r.r.r.r.r.r.r.r.r.r.r.r.",
"r.r.r.r.r.  9 F 8 : % # + - ' 0.0.w.q.4.=.n O n 7 r.r.r.r.r.r.r.r.r.r.r.r.r.r.r.r.r.r.r.r.r.r.r.r.r.",
"r.r.r.r.r.r.o N i % % * & + B >.1.:. .` _ N > N ^ r.r.r.r.r.r.r.r.r.r.r.r.r.r.r.r.r.r.r.r.r.r.r.r.r.",
"r.r.r.r.r.r.. u N : % % & O m [ K c F E L ( C Y ~ r.r.r.r.r.r.r.r.r.r.r.r.r.r.r.r.r.r.r.r.r.r.r.r.r.",
"r.r.r.r.r.r.  , A 8 % % 1 q z V ) ) { ..( ^ H H R v v o r.r.r.r.r.r.r.r.r.r.r.r.r.r.r.r.r.r.r.r.r.r.",
"r.r.r.r.r.r.r.X v n r W X.=.X.^ ^ Q F F F H R R ( ) { ) #.N 9 r r.r.r.r.r.r.r.r.r.r.r.r.r.r.r.r.r.r.",
"r.r.r.r.r.r.r.. u H F R | E R A A F J R Q R R L H F H H R Q | =.(  .k ; > r.r.r.r.r.r.r.r.r.r.r.r.r.",
"r.r.r.r.r.r.r.  , A B C A A H R R W R F F F Z F F F H H J I L L R ~ ) :.5.Q ( e X r.r.r.r.r.r.r.r.r.",
"r.r.r.r.r.r.  7 s N H R R R R F A N N N C A A A F F H H H I J R R Q ~ { { | X.#.4.X.M N r.r.r.r.r.r.",
"r.r.r.r.      6 v R R R F N m m N N N N B N A A F F H H I J R Q ( ( ' { { { ..| X.| X.=.#.H . r.r.r.",
"r.r.r.          ; v J Q Q H N N N N N N A A A A F F F J R Q Q R R Q ) { { | | ........ .{ k   r.r.r.",
"r.r.r.          . ; e m R Q Q L A N N B N A A A F J Q ^ ( R Q R I ^ ) { { | { | | { ) L m 6 r.r.r.r.",
"r.r.r.              . $ u m F ^ Q R F A N B F R Q ( ( ( ( ( ( ^ ) ) ) ) { ' | | Q Z s $ . r.r.r.r.r.",
"r.r.r.r.                . $ u m J ^ ( Q I Q Q ~ ( ( ( ( ) ( ) ) ) ) { ' { ( R b 2 X       r.r.r.r.r.",
"r.r.r.r.r.r.                  ; u v F E ( ^ ^ ( ( ( ( ( ( ) ) ) ) { ( Q N r $           r.r.r.r.r.r.",
"r.r.r.r.r.r.r.r.                . ; r x A Q ( ( ( ( ( ( ( ( ) ^ Q F v 6 o .         r.r.r.r.r.r.r.r.",
"r.r.r.r.r.r.r.r.r.r.                . $ e x A W ( ( ( ( ( R H N s , X           r.r.r.r.r.r.r.r.r.r.",
"r.r.r.r.r.r.r.r.r.r.r.r.r.              . $ e m N R I J B v r @ .           r.r.r.r.r.r.r.r.r.r.r.r.",
"r.r.r.r.r.r.r.r.r.r.r.r.r.r.r.                $ u m m k 6 o           r.r.r.r.r.r.r.r.r.r.r.r.r.r.r.",
"r.r.r.r.r.r.r.r.r.r.r.r.r.r.r.r.r.                ; ; .           r.r.r.r.r.r.r.r.r.r.r.r.r.r.r.r.r.",
"r.r.r.r.r.r.r.r.r.r.r.r.r.r.r.r.r.r.r.                      r.r.r.r.r.r.r.r.r.r.r.r.r.r.r.r.r.r.r.r.",
"r.r.r.r.r.r.r.r.r.r.r.r.r.r.r.r.r.r.r.r.r.r.          r.r.r.r.r.r.r.r.r.r.r.r.r.r.r.r.r.r.r.r.r.r.r.",
"r.r.r.r.r.r.r.r.r.r.r.r.r.r.r.r.r.r.r.r.r.r.r.r.r.r.r.r.r.r.r.r.r.r.r.r.r.r.r.r.r.r.r.r.r.r.r.r.r.r.",
"r.r.r.r.r.r.r.r.r.r.r.r.r.r.r.r.r.r.r.r.r.r.r.r.r.r.r.r.r.r.r.r.r.r.r.r.r.r.r.r.r.r.r.r.r.r.r.r.r.r.",
"r.r.r.r.r.r.r.r.r.r.r.r.r.r.r.r.r.r.r.r.r.r.r.r.r.r.r.r.r.r.r.r.r.r.r.r.r.r.r.r.r.r.r.r.r.r.r.r.r.r.",
"r.r.r.r.r.r.r.r.r.r.r.r.r.r.r.r.r.r.r.r.r.r.r.r.r.r.r.r.r.r.r.r.r.r.r.r.r.r.r.r.r.r.r.r.r.r.r.r.r.r.",
"r.r.r.r.r.r.r.r.r.r.r.r.r.r.r.r.r.r.r.r.r.r.r.r.r.r.r.r.r.r.r.r.r.r.r.r.r.r.r.r.r.r.r.r.r.r.r.r.r.r.",
"r.r.r.r.r.r.r.r.r.r.r.r.r.r.r.r.r.r.r.r.r.r.r.r.r.r.r.r.r.r.r.r.r.r.r.r.r.r.r.r.r.r.r.r.r.r.r.r.r.r."
};
