/* XPM */
static char *gnome-cromagnon[] = {
/* columns rows colors chars-per-pixel */
"48 48 212 2",
"   c #000000",
".  c #080606",
"X  c #0B0907",
"o  c #0B0808",
"O  c #100C0B",
"+  c #171210",
"@  c #1B1513",
"#  c #1E1815",
"$  c #271513",
"%  c #201917",
"&  c #241C19",
"*  c #281613",
"=  c #2D1816",
"-  c #2E1C19",
";  c #321B17",
":  c #331E1A",
">  c #361D20",
",  c #26201C",
"<  c #2C211D",
"1  c #36211D",
"2  c #38221D",
"3  c #2D2420",
"4  c #2F2F2E",
"5  c #312622",
"6  c #332924",
"7  c #3B2521",
"8  c #3D2823",
"9  c #3E2E2A",
"0  c #3F312C",
"q  c #363535",
"w  c #3B3A37",
"e  c #3D3C3A",
"r  c #402722",
"t  c #412B26",
"y  c #432E29",
"u  c #482C27",
"i  c #482F2A",
"p  c #42322D",
"a  c #4C332D",
"s  c #423633",
"d  c #473F38",
"f  c #4B3631",
"g  c #4C3A34",
"h  c #513731",
"j  c #513B34",
"k  c #553E38",
"l  c #5A3E37",
"z  c #652C33",
"x  c #65343B",
"c  c #6B393F",
"v  c #752E36",
"b  c #782F36",
"n  c #75363C",
"m  c #793037",
"M  c #7B373E",
"N  c #623F45",
"B  c #41413D",
"V  c #54423B",
"C  c #5B433C",
"Z  c #60453C",
"A  c #454442",
"S  c #484744",
"D  c #4A4845",
"F  c #4D4C49",
"G  c #504E4C",
"H  c #5A4640",
"J  c #5B4841",
"K  c #54524E",
"L  c #5D534B",
"P  c #555451",
"I  c #585654",
"U  c #5C5B56",
"Y  c #5D5C58",
"T  c #604640",
"R  c #624B43",
"E  c #6E4349",
"W  c #694D45",
"Q  c #655047",
"!  c #65514A",
"~  c #69544B",
"^  c #6C584F",
"/  c #6D5355",
"(  c #6D5A50",
")  c #72564D",
"_  c #735C53",
"`  c #7A5C52",
"'  c #62615D",
"]  c #766257",
"[  c #766359",
"{  c #7A6056",
"}  c #7B6459",
"|  c #7A695D",
" . c #6A6964",
".. c #6E6D68",
"X. c #706E69",
"o. c #7C6C61",
"O. c #74726E",
"+. c #7B716B",
"@. c #777571",
"#. c #797775",
"$. c #7D7B75",
"%. c #7E7D79",
"&. c #85464B",
"*. c #835558",
"=. c #816056",
"-. c #82665B",
";. c #836A5E",
":. c #88695E",
">. c #806364",
",. c #816D61",
"<. c #836F68",
"1. c #8B6D62",
"2. c #847165",
"3. c #857469",
"4. c #87786A",
"5. c #8E7166",
"6. c #897569",
"7. c #8D796C",
"8. c #877D74",
"9. c #817F7D",
"0. c #8F7273",
"q. c #917165",
"w. c #937569",
"e. c #907A6D",
"r. c #98766A",
"t. c #9D7B6E",
"y. c #927D70",
"u. c #A07E71",
"i. c #84827C",
"p. c #958174",
"a. c #968278",
"s. c #998274",
"d. c #9B8578",
"f. c #9C897C",
"g. c #A48174",
"h. c #A28679",
"j. c #A18B7D",
"k. c #AE8B7C",
"l. c #B08E7F",
"z. c #858381",
"x. c #898683",
"c. c #8B8984",
"v. c #8E8C89",
"b. c #928C85",
"n. c #918989",
"m. c #94918D",
"M. c #9F9087",
"N. c #969491",
"B. c #9B9593",
"V. c #9F9896",
"C. c #9D9A98",
"Z. c #A59182",
"A. c #AC9384",
"S. c #AA9887",
"D. c #AB9889",
"F. c #A39E96",
"G. c #A49C99",
"H. c #AC9793",
"J. c #AC9A94",
"K. c #B3968A",
"L. c #B49E8D",
"P. c #BC9787",
"I. c #B99C8F",
"U. c #B09E99",
"Y. c #A6A09C",
"T. c #A8A39E",
"R. c #B6A191",
"E. c #B1A399",
"W. c #BCA391",
"Q. c #BBA79B",
"!. c #A6A4A1",
"~. c #ABA6A2",
"^. c #ABA9A4",
"/. c #ACABA9",
"(. c #B0AAA6",
"). c #B3ADA9",
"_. c #B9ABA5",
"`. c #B5B2AB",
"'. c #B9B3AC",
"]. c #B6B5B1",
"[. c #BBB7B0",
"{. c #BDB9B2",
"}. c #BDBCB8",
"|. c #C19A8A",
" X c #C2AC99",
".X c #C4BAAF",
"XX c #C1BDB4",
"oX c #C2BFB8",
"OX c #E0B3A1",
"+X c #C3C0B7",
"@X c #C5C2BA",
"#X c #C9C0B6",
"$X c #C9C5BC",
"%X c #CBC8BF",
"&X c #C9C6C1",
"*X c #CDC9C1",
"=X c #D1CDC4",
"-X c #D0CECA",
";X c #D3D0C6",
":X c #D5D2C9",
">X c #D9D5CC",
",X c #DCD8CE",
"<X c #D7D5D1",
"1X c #DDDAD1",
"2X c #DEDDDB",
"3X c #E1DDD3",
"4X c #E4E0D6",
"5X c #E5E2DA",
"6X c #E9E5DB",
"7X c #EDE9DE",
"8X c #E4E4E1",
"9X c None",
/* pixels */
"9X9X9X9X9X9X9X9X9X9X9X9X9X9X9X9X9X9X9X9X9X9X9X9X9X9X9X9X9X9X9X9X9X9X9X9X9X9X9X9X9X9X9X9X9X9X9X9X",
"9X9X9X9X9X9X9X9X9X9X9X9X9X9X9X9X9X9X9X9X9X9X9X9X9X9X9X9X9X9X9X9X9X9X9X9X9X9X9X9X9X9X9X9X9X9X9X9X",
"9X9X9X9X9X9X9X9X9X9X9X9X9X9X9X9X9X9X9X9X9X9X9X9X9X9X9X9X9X9X9X9X9X9X9X9X9X9X9X9X9X9X9X9X9X9X9X9X",
"9X9X9X9X9X9X9X9X9X9X9X9X9X9X9X9X9X9X9X9X9X9X9X9X9X9X9X9X9X9X9X9X9X9X9X9X9X9X9X9X9X9X9X9X9X9X9X9X",
"9X9X9X9X9X9X9X9X9X9Xd.3.| 2.f.9X9X9X9X9X9X9X9X9X9X9X9X9X9X9X9X9X9X9X9X9X9X9X9X9X9X9X9X9X9X9X9X9X",
"9X9X9X9X9X9X9X9X9Xd.d.p.Z.6.Z.e.9X9X9X9X9X9X9X9X9X9X9X9X9X9X9X9X9X9X9X9X9X9X9X9X9X9X9X9X9X9X9X9X",
"9X9X9X9X9X9X9X9X2.4.o.L. Xd.S.2.9X9X9X9X9X9X9X9X9X9X9X9X9X9X9X9X9X9X9X9X9X9X9X9X9X9X9X9X9X9X9X9X",
"9X9X9X9X9X9X9X,.2.s.4.+.7.4.6.,.9X9X9X9X9X9X9X9X9X9X9X9X9X9X9X9X9X9X9X9X9X9X9X9X9X9X9X9X9X9X9X9X",
"9X9X9X9X9X9Xd.d.j.I.f.f.f.p.7.2.[ 9X9X9X9X9X9X9X9X9X9X9X9X9X9X9X9X9X9X9X9X9X9X9X9X9X9X9X9X9X9X9X",
"9X9X9X9X9X9XZ.f.A.Z.R.D.S.Z.s.+ H 9X9X9X9X9X9X9X9X9X9X9X9X9X9X9X9X9X9X9X9X9X9X9X9X9X9X9X9X9X9X9X",
"9X9X9X9X9X9Xy.y.| f.D.Z.d.d.6., ~ 9X9X9X9X9X9X9X9Xq A 4 B P 9.z.#.%.z.9X9X9X9X9X9X9X9X9X9X9X9X9X",
"9X9X9X9X9X9X9X9Xs.Z.L B [ 4.^ s } 9X9X9X9X9X9X9Xw A P S ' O.9X9X#.v.c.m.9X9X9X9X9X9X9X9X9X9X9X9X",
"9X9X9X9X9X9X9X9Xl.Z.| +.4.| ^ ( _ 9X9X9X9X9X9X9XA G U K 9X9X9X9X9Xz.z.%.9X9X9X9X9X9X9X9X9X9X9X9X",
"9X9X9X9X9X9X9X9Xp.f.p.Z. Xe.,.{ W 9X9X9X9X9X9X9XA S G Y 9X9X9X9X9XN.C.N.9X9X9X9X9X9X9X9X9X9X9X9X",
"9X9X9X9X9X9X9X9X6.p.p.2.;.J ( J g 9X9X9X9X9X9XP F A B S K +.~ w.|.P.9.m.9X9X9X9X9X9X9X9X9X9X9X9X",
"9X9X9X9X9X9X9X2.2.2.2.4.;.^ ( ] C 9X9X9X9XF A S G G K I / ' +.M.OXk.!.m.w.9X9X9X9X9X9X9X9X9X9X9X",
"9X9X9X9X9X9X9X,.,.,.6.p.6.[ ] _ 9X9X9X9XA e F P ' ..O.O.O.$.i.m.A.|.K.d.u.w.w.9X9X9X9X9X9X9X9X9X",
"9X9X9X9X9X9X9X4.6.2.p.| [ ( f V 9X9X9Xd w S Y c.^.].{.{.{.{.{.{.'.I.w.-._ w.r.g.9X9X9X9X9X9X9X9X",
"9X9X9X9X9X9X9X9X9Xd.f.| [ ] C C 9X9X9Xe S ../.-X2X-X_.&.J.{.+X@X$XXX;.1.w.u.u.t.1.9X9X9X9X9X9X9X",
"9X9X9X9X9X9X9X9Xj.j.e.| C ~ g 9X9X9XB S X./.-X8X-X}.J.M J.+XV.@X%X%XM.p ` 1.t.) r.9X9X9X9X9X9X9X",
"9X9X9X9X9X9X9X9Xe.e.2.,.C R R 9X9X9XA ' /.}.}.<X@X{._.m J.#XB.$X%X*X$X! r.r.C R 1.-.9X9X9X9X9X9X",
"9X9X9X9X9X9X9X9Xe.e.6.} _ _ W 9X9Xw F %.-X2X&X+X{.{.{.m J.'.G.%X*X=X;Xd.q.g.^ { r.:.9X9X9X9X9X9X",
"9X9X9X9X9X9X9X9X2.,.6.} p V C 9X9XS U C.2X2X-X{.{.{.XXb U.[.G.=X=X;X>XE.) ` _ :.) W ` 9X9X9X9X9X",
"9X9X9X9X9X9X9X9X6.7.} ~ V C 9X9X9XF  .^.{.8X&X{.{.}.oXv U.XXG.=X;X:X>X.XZ ` ` j < p C 9X9X9X9X9X",
"9X9X9X9X9X9X9X9X9Xj.;.^ ~ R 9X9X9XP O.^.{.@XXX{.XX{.{.n 0.{.G.:X;X>X,X;XW ` W Z C { *.9X9X9X9X9X",
"9X9X9X9X9X9X9X9X9Xe.| _ ) k 9X9X9XY $.{.&XXX{.{.{.T.%.z / '.T.:X>X,X,X,XZ ` W Z j ` ) 9X9X9X9X9X",
"9X9X9X9X9X9X9X9X9Xe._ ! 9 g 9X9X9X' %.XX@X}.XX+X{.c.s > F G.B.>X>X,X,X3XC Z C C j Z R 9X9X9X9X9X",
"9X9X9X9X9X9X9X,.| [ R J g C 9X9X9X .%.{.+X+XXX+X+X'.c T ^.V.B.>X,X3X4X>XW k p k h Z R 9X9X9X9X9X",
"9X9X9X9X9X9X9X_ _ ^ J p g C 9X9X9XO.%.XXoXoX+X$X$X*.E XX;XV.{.,X3X3X4X#Xi g h Z g y h 9X9X9X9X9X",
"9X9X9X9X9X9X9X[ [ -._ g j 9X9X9X9XO.i.{.oXoX#X$X_.x '.;X).^.,X1X3X4X5XJ.l g h C l h p 9X9X9X9X9X",
"9X9X9X9X9X9X9X[ [ } J 9 C 9X9X9X9X%.i.`.oX$X$X%Xx >.;X$Xn.,X1X3X4X5X6X2.Z h a a h p < 9X9X9X9X9X",
"9X9X9X9X9X9X9X} } _ R f V 9X9X9X9X9Xi.T.#X$X%X%X=X=X>X(.%X,X3X4X4X6X,Xt u 2 t a i - 7 9X9X9X9X9X",
"9X9X9X9X9X9X9XJ J g C C C 9X9X9X9X9Xi.m.$X%X*X;X;X;XF.@X1X3X3X4X6X7Xb.: 7 r 7 7 7 2 9X9X9X9X9X9X",
"9X9X9X9X9X9X9X9X3 @ 5 g C 9X9X9X9X9X9Xc.`.=X*X;X;X>X,X,X3X4X4X6X7X=Xu : 2 r 7 7 7 : 9X9X9X9X9X9X",
"9X9X9X9X9X9X9X9XV J ` W 9X9X9X9X9X9X9Xm.b.$X;X;X:X,X,X3X3X4X6X6X8X! * ; 2 2 : : : 9X9X9X9X9X9X9X",
"9X9X9X9X9X9X] ` ! g ` ) 9X9X9X9X9X9X9X9Xv.F.;X>X,X,X,X4X4X6X6X7Xo.; * * : ; ; * * 9X9X9X9X9X9X9X",
"9X9X9X9X9X9X~ ~ ! C C T 9X9X9X9X9X9X9X9X9X8.G.:X,X,X3X4X6X6X>X4.p 3 5 6 5 & # @ O 9X9X9X9X9X9X9X",
"9X9X9X9X9X9X! ~ g l j C 9X9X9X9X9X9X9X9X( w.l.f..X>X4X3X#XQ.1.J 5 & 5 5 & & # + O . 9X9X9X9X9X9X",
"9X9X9X9X9X9X! ! C j g 9X9X9X9X9X9X9X9Xu.[ 1.h.-.} J J J V ~ J J g j 0 6 & & # o o . 9X9X9X9X9X9X",
"9X9X9X9X9X9XJ J C j T 9X9X9X9X9X9X9X9X9X9X5.1.-.5.} ] w.} -.~ ~ V L L < & # + o X 9X9X9X9X9X9X9X",
"9X9X9X9X9X9XR J H j C 9X9X9X9X9X9X9X9X9X9X9X9X9X9X9X9X9X9X9X9X9X9X9X9X9X9X9X9X9X9X9X9X9X9X9X9X9X",
"9X9X9X9X9X9X9XW W R 9X9X9X9X9X9X9X9X9X9X9X9X9X9X9X9X9X9X9X9X9X9X9X9X9X9X9X9X9X9X9X9X9X9X9X9X9X9X",
"9X9X9X9X9X9X9X9X9X9X9X9X9X9X9X9X9X9X9X9X9X9X9X9X9X9X9X9X9X9X9X9X9X9X9X9X9X9X9X9X9X9X9X9X9X9X9X9X",
"9X9X9X9X9X9X9X9X9X9X9X9X9X9X9X9X9X9X9X9X9X9X9X9X9X9X9X9X9X9X9X9X9X9X9X9X9X9X9X9X9X9X9X9X9X9X9X9X",
"9X9X9X9X9X9X9X9X9X9X9X9X9X9X9X9X9X9X9X9X9X9X9X9X9X9X9X9X9X9X9X9X9X9X9X9X9X9X9X9X9X9X9X9X9X9X9X9X",
"9X9X9X9X9X9X9X9X9X9X9X9X9X9X9X9X9X9X9X9X9X9X9X9X9X9X9X9X9X9X9X9X9X9X9X9X9X9X9X9X9X9X9X9X9X9X9X9X",
"9X9X9X9X9X9X9X9X9X9X9X9X9X9X9X9X9X9X9X9X9X9X9X9X9X9X9X9X9X9X9X9X9X9X9X9X9X9X9X9X9X9X9X9X9X9X9X9X",
"9X9X9X9X9X9X9X9X9X9X9X9X9X9X9X9X9X9X9X9X9X9X9X9X9X9X9X9X9X9X9X9X9X9X9X9X9X9X9X9X9X9X9X9X9X9X9X9X"
};
